<?xml version="1.0" standalone="no"?>
<!DOCTYPE svg PUBLIC "-//W3C//DTD SVG 20010904//EN"
 "http://www.w3.org/TR/2001/REC-SVG-20010904/DTD/svg10.dtd">
<svg version="1.0" xmlns="http://www.w3.org/2000/svg"
 width="40px" height="40px" viewBox="0 0 480.000000 277.000000"
 preserveAspectRatio="xMidYMid meet">

<g transform="translate(0.000000,277.000000) scale(0.100000,-0.100000)"
fill="white" stroke="none">
<path d="M1715 2760 c-147 -13 -253 -51 -368 -134 -150 -106 -244 -248 -288
-434 -18 -77 -20 -127 -23 -625 -2 -298 0 -625 4 -727 7 -171 10 -192 39 -279
39 -115 85 -193 164 -277 116 -125 269 -203 449 -230 87 -13 206 -15 758 -11
633 3 658 4 737 25 233 61 398 191 493 387 87 179 93 252 87 1025 -6 650 -7
665 -56 804 -34 96 -80 165 -177 262 -78 79 -104 98 -185 137 -176 84 -139 81
-884 83 -363 1 -700 -2 -750 -6z m1429 -263 c190 -56 317 -189 361 -381 14
-59 15 -154 12 -725 -3 -595 -5 -662 -21 -716 -59 -197 -175 -309 -376 -361
-58 -15 -139 -17 -710 -18 -574 0 -653 1 -719 17 -161 37 -271 114 -334 235
-66 128 -67 137 -67 859 0 711 1 727 60 843 77 152 214 240 405 260 44 4 361
7 705 6 560 -2 631 -4 684 -19z"/>
<path d="M3060 2271 c-137 -72 -103 -270 51 -296 51 -9 125 26 156 74 86 129
-70 296 -207 222z"/>
<path d="M2210 2086 c-106 -32 -125 -41 -200 -91 -124 -83 -219 -202 -270
-343 -122 -336 26 -711 345 -868 49 -24 124 -52 165 -60 102 -22 270 -14 360
16 299 100 490 361 490 670 0 320 -209 593 -520 679 -107 30 -267 28 -370 -3z
m353 -255 c109 -43 216 -150 257 -258 101 -269 -68 -557 -355 -606 -215 -37
-444 114 -500 328 -39 150 -3 298 98 411 60 66 115 103 196 131 86 31 216 28
304 -6z"/>
</g>
</svg>
